# xmcd
#
# Track frame offsets:
#	150
#	18179
#	34778
#	52212
#
# Disc length: 887 seconds
#
# Revision: 0
# Processed by: cddbd v1.5.2PL0 Copyright (c) Steve Scherf et al.
# Submitted via: dBpowerAMP V4.0
#
DISCID=2c037504
DTITLE=tracy - tracy
DYEAR=1900
DGENRE=
TTITLE0=ticks
TTITLE1=little mom
TTITLE2=centerfield
TTITLE3=to be am
EXTD=tracy
EXTT0=
EXTT1=
EXTT2=
EXTT3=
PLAYORDER=
